<?xml version="1.0" encoding="UTF-8" ?>
<!DOCTYPE svg PUBLIC "-//W3C//DTD SVG 1.1//EN" "http://www.w3.org/Graphics/SVG/1.1/DTD/svg11.dtd">
<svg width="256pt" height="256pt" viewBox="0 0 256 256" version="1.1" xmlns="http://www.w3.org/2000/svg">
<g id="#030304ff">
<path fill="#030304" opacity="1.00" d=" M 176.00 0.00 L 224.00 0.00 C 224.00 58.67 224.00 117.33 224.00 176.00 C 221.33 175.99 218.66 175.99 216.00 176.00 C 215.99 173.33 215.99 170.66 216.00 168.00 C 215.99 162.66 216.00 157.33 216.00 152.00 C 216.00 141.33 216.00 130.67 216.00 120.00 C 216.00 82.67 216.00 45.33 216.00 8.00 C 202.66 8.00 189.33 8.00 176.00 8.00 C 176.00 5.33 176.00 2.67 176.00 0.00 Z" />
<path fill="#030304" opacity="1.00" d=" M 160.00 8.00 C 165.33 8.00 170.66 8.00 176.00 8.00 C 176.00 10.67 176.00 13.33 176.00 16.00 C 170.66 16.00 165.33 16.00 160.00 16.00 C 160.00 13.33 160.00 10.67 160.00 8.00 Z" />
<path fill="#030304" opacity="1.00" d=" M 144.00 16.00 C 149.33 16.00 154.66 16.00 160.00 16.00 C 160.00 18.67 160.00 21.33 160.00 24.00 C 154.66 24.00 149.33 24.00 144.00 24.00 C 144.00 21.33 144.00 18.67 144.00 16.00 Z" />
<path fill="#030304" opacity="1.00" d=" M 128.00 24.00 C 133.33 24.00 138.66 24.00 144.00 24.00 C 144.00 26.67 144.00 29.33 144.00 32.00 C 138.66 32.00 133.33 32.00 128.00 32.00 C 128.00 29.33 128.00 26.67 128.00 24.00 Z" />
<path fill="#030304" opacity="1.00" d=" M 112.00 32.00 C 117.33 32.00 122.66 32.00 128.00 32.00 C 128.00 34.67 128.00 37.33 128.00 40.00 C 122.66 40.00 117.33 40.00 112.00 40.00 C 112.00 37.33 112.00 34.67 112.00 32.00 Z" />
<path fill="#030304" opacity="1.00" d=" M 96.00 40.00 C 101.33 40.00 106.67 40.00 112.00 40.00 C 112.00 42.67 112.00 45.33 112.00 48.00 C 106.67 48.00 101.33 48.00 96.00 48.00 C 96.00 45.33 96.00 42.67 96.00 40.00 Z" />
<path fill="#030304" opacity="1.00" d=" M 80.00 48.00 C 85.33 48.00 90.67 48.00 96.00 48.00 C 96.00 50.67 96.00 53.33 96.00 56.00 C 93.33 56.00 90.67 56.00 88.00 56.00 C 88.00 88.00 88.00 120.00 88.00 152.00 C 80.00 152.00 72.00 152.00 64.00 152.00 C 64.00 149.33 64.00 146.66 64.00 144.00 C 69.33 144.00 74.67 144.00 80.00 144.00 C 80.00 112.00 80.00 80.00 80.00 48.00 Z" />
<path fill="#030304" opacity="1.00" d=" M 176.00 72.00 C 181.33 72.00 186.66 72.00 192.00 72.00 C 192.00 82.67 192.00 93.33 192.00 104.00 C 191.99 106.66 191.99 109.33 192.00 112.00 C 184.00 112.00 176.00 112.00 168.00 112.00 C 168.00 109.33 168.00 106.66 168.00 104.00 C 173.33 104.00 178.66 104.00 184.00 104.00 C 184.00 96.00 184.00 88.00 184.00 80.00 C 181.33 80.00 178.66 80.00 176.00 80.00 C 176.00 77.33 176.00 74.66 176.00 72.00 Z" />
<path fill="#030304" opacity="1.00" d=" M 160.00 80.00 C 165.33 80.00 170.66 80.00 176.00 80.00 C 176.00 82.67 176.00 85.33 176.00 88.00 C 170.66 88.00 165.33 88.00 160.00 88.00 C 160.00 85.33 160.00 82.66 160.00 80.00 Z" />
<path fill="#030304" opacity="1.00" d=" M 144.00 88.00 C 149.33 88.00 154.66 88.00 160.00 88.00 C 160.00 90.67 160.00 93.33 160.00 96.00 C 154.66 96.00 149.33 96.00 144.00 96.00 C 144.00 93.33 144.00 90.66 144.00 88.00 Z" />
<path fill="#030304" opacity="1.00" d=" M 128.00 96.00 C 133.33 96.00 138.66 96.00 144.00 96.00 C 144.00 98.67 144.00 101.33 144.00 104.00 C 138.66 104.00 133.33 104.00 128.00 104.00 C 128.00 101.33 128.00 98.66 128.00 96.00 Z" />
<path fill="#030304" opacity="1.00" d=" M 112.00 104.00 C 117.33 104.00 122.66 104.00 128.00 104.00 C 128.00 106.66 128.00 109.33 128.00 112.00 C 125.33 112.00 122.66 112.00 120.00 112.00 C 120.00 146.67 120.00 181.33 120.00 216.00 C 117.33 215.99 114.66 215.99 112.00 216.00 C 112.00 213.33 112.00 210.66 112.00 208.00 C 112.00 202.66 112.00 197.33 112.00 192.00 C 112.00 181.33 112.00 170.67 112.00 160.00 C 112.00 141.33 112.00 122.67 112.00 104.00 Z" />
<path fill="#030304" opacity="1.00" d=" M 152.00 112.00 C 157.33 112.00 162.66 112.00 168.00 112.00 C 168.00 114.66 168.00 117.33 168.00 120.00 C 165.33 120.00 162.66 120.00 160.00 120.00 C 157.33 120.00 154.66 120.00 152.00 120.00 C 152.00 117.33 152.00 114.66 152.00 112.00 Z" />
<path fill="#030304" opacity="1.00" d=" M 144.00 120.00 C 146.66 120.00 149.33 120.00 152.00 120.00 C 152.00 122.66 152.00 125.33 152.00 128.00 C 149.33 128.00 146.66 128.00 144.00 128.00 C 144.00 125.33 144.00 122.66 144.00 120.00 Z" />
<path fill="#030304" opacity="1.00" d=" M 136.00 128.00 C 138.66 128.00 141.33 128.00 144.00 128.00 C 144.00 130.66 144.00 133.33 144.00 136.00 C 141.33 136.00 138.66 136.00 136.00 136.00 C 136.00 133.33 136.00 130.66 136.00 128.00 Z" />
<path fill="#030304" opacity="1.00" d=" M 128.00 136.00 C 130.66 136.00 133.33 136.00 136.00 136.00 C 136.00 141.33 136.00 146.66 136.00 152.00 C 136.00 160.00 136.00 168.00 136.00 176.00 C 136.00 178.66 136.00 181.33 136.00 184.00 C 133.33 184.00 130.66 184.00 128.00 184.00 C 128.00 168.00 128.00 152.00 128.00 136.00 Z" />
<path fill="#030304" opacity="1.00" d=" M 48.00 152.00 C 53.33 152.00 58.67 152.00 64.00 152.00 C 64.00 154.66 64.00 157.33 64.00 160.00 C 61.33 160.00 58.66 160.00 56.00 160.00 C 53.33 160.00 50.67 160.00 48.00 160.00 C 48.00 157.33 48.00 154.66 48.00 152.00 Z" />
<path fill="#030304" opacity="1.00" d=" M 40.00 160.00 C 42.67 160.00 45.33 160.00 48.00 160.00 C 48.00 162.66 48.00 165.33 48.00 168.00 C 45.33 168.00 42.67 168.00 40.00 168.00 C 40.00 165.33 40.00 162.66 40.00 160.00 Z" />
<path fill="#030304" opacity="1.00" d=" M 32.00 168.00 C 34.67 168.00 37.33 168.00 40.00 168.00 C 40.00 170.66 40.00 173.33 40.00 176.00 C 37.33 175.99 34.67 175.99 32.00 176.00 C 32.00 173.33 32.00 170.66 32.00 168.00 Z" />
<path fill="#030304" opacity="1.00" d=" M 24.00 176.00 C 26.67 176.00 29.33 176.00 32.00 176.00 C 32.00 184.00 32.00 192.00 32.00 200.00 C 32.00 205.33 32.00 210.66 32.00 216.00 C 32.00 218.66 32.00 221.33 32.00 224.00 C 29.33 224.00 26.67 224.00 24.00 224.00 C 24.00 208.00 24.00 192.00 24.00 176.00 Z" />
<path fill="#030304" opacity="1.00" d=" M 208.00 176.00 C 210.66 176.00 213.33 176.00 216.00 176.00 C 216.00 178.66 216.00 181.33 216.00 184.00 C 213.33 183.99 210.66 183.99 208.00 184.00 C 207.99 181.33 207.99 178.66 208.00 176.00 Z" />
<path fill="#030304" opacity="1.00" d=" M 136.00 184.00 C 138.66 183.99 141.33 183.99 144.00 184.00 C 144.00 186.66 144.00 189.33 144.00 192.00 C 141.33 192.00 138.66 192.00 136.00 192.00 C 136.00 189.33 136.00 186.66 136.00 184.00 Z" />
<path fill="#030304" opacity="1.00" d=" M 200.00 184.00 C 202.66 183.99 205.33 183.99 208.00 184.00 C 208.00 186.66 208.00 189.33 208.00 192.00 C 205.33 191.99 202.66 191.99 200.00 192.00 C 199.99 189.33 199.99 186.66 200.00 184.00 Z" />
<path fill="#030304" opacity="1.00" d=" M 144.00 192.00 C 146.66 191.99 149.33 191.99 152.00 192.00 C 152.00 194.66 152.00 197.33 152.00 200.00 C 149.33 200.00 146.66 200.00 144.00 200.00 C 144.00 197.33 144.00 194.66 144.00 192.00 Z" />
<path fill="#030304" opacity="1.00" d=" M 192.00 192.00 C 194.66 191.99 197.33 191.99 200.00 192.00 C 200.00 194.66 200.00 197.33 200.00 200.00 C 197.33 199.99 194.66 199.99 192.00 200.00 C 191.99 197.33 191.99 194.66 192.00 192.00 Z" />
<path fill="#030304" opacity="1.00" d=" M 152.00 200.00 C 165.33 200.00 178.66 200.00 192.00 200.00 C 192.00 202.66 192.00 205.33 192.00 208.00 C 178.66 208.00 165.33 208.00 152.00 208.00 C 152.00 205.33 152.00 202.66 152.00 200.00 Z" />
<path fill="#030304" opacity="1.00" d=" M 104.00 216.00 C 106.66 215.99 109.33 215.99 112.00 216.00 C 112.00 218.66 112.00 221.33 112.00 224.00 C 109.33 223.99 106.66 223.99 104.00 224.00 C 104.00 221.33 104.00 218.66 104.00 216.00 Z" />
<path fill="#030304" opacity="1.00" d=" M 32.00 224.00 C 34.67 223.99 37.33 223.99 40.00 224.00 C 40.00 226.66 40.00 229.33 40.00 232.00 C 37.33 232.00 34.67 232.00 32.00 232.00 C 32.00 229.33 32.00 226.66 32.00 224.00 Z" />
<path fill="#030304" opacity="1.00" d=" M 96.00 224.00 C 98.66 223.99 101.33 223.99 104.00 224.00 C 104.00 226.66 104.00 229.33 104.00 232.00 C 101.33 231.99 98.66 231.99 96.00 232.00 C 96.00 229.33 96.00 226.66 96.00 224.00 Z" />
<path fill="#030304" opacity="1.00" d=" M 40.00 232.00 C 42.67 231.99 45.33 231.99 48.00 232.00 C 48.00 234.66 48.00 237.33 48.00 240.00 C 45.33 240.00 42.67 240.00 40.00 240.00 C 40.00 237.33 40.00 234.66 40.00 232.00 Z" />
<path fill="#030304" opacity="1.00" d=" M 88.00 232.00 C 90.66 231.99 93.33 231.99 96.00 232.00 C 96.00 234.66 96.00 237.33 96.00 240.00 C 93.33 239.99 90.66 239.99 88.00 240.00 C 88.00 237.33 88.00 234.66 88.00 232.00 Z" />
<path fill="#030304" opacity="1.00" d=" M 48.00 240.00 C 61.33 240.00 74.67 240.00 88.00 240.00 C 88.00 242.66 88.00 245.33 88.00 248.00 C 74.67 248.00 61.33 248.00 48.00 248.00 C 48.00 245.33 48.00 242.66 48.00 240.00 Z" />
</g>
<g id="#9985b5ff">
<path fill="#9985b5" opacity="1.00" d=" M 176.00 8.00 C 189.33 8.00 202.66 8.00 216.00 8.00 C 216.00 45.33 216.00 82.67 216.00 120.00 C 213.33 120.00 210.66 120.00 208.00 120.00 C 208.00 117.33 208.00 114.66 208.00 112.00 C 205.33 112.00 202.66 112.00 200.00 112.00 C 200.00 109.33 200.00 106.66 200.00 104.00 C 197.33 104.00 194.66 104.00 192.00 104.00 C 192.00 93.33 192.00 82.67 192.00 72.00 C 191.99 69.33 191.99 66.66 192.00 64.00 C 191.99 61.33 191.99 58.66 192.00 56.00 C 186.66 56.00 181.33 56.00 176.00 56.00 C 173.33 56.00 170.66 56.00 168.00 56.00 C 168.00 58.67 168.00 61.33 168.00 64.00 C 162.66 64.00 157.33 64.00 152.00 64.00 C 152.00 66.67 152.00 69.33 152.00 72.00 C 146.66 72.00 141.33 72.00 136.00 72.00 C 136.00 74.67 136.00 77.33 136.00 80.00 C 130.66 80.00 125.33 80.00 120.00 80.00 C 117.33 80.00 114.66 80.00 112.00 80.00 C 112.00 82.67 112.00 85.33 112.00 88.00 C 112.00 90.66 112.00 93.33 112.00 96.00 C 112.00 98.66 112.00 101.33 112.00 104.00 C 112.00 122.67 112.00 141.33 112.00 160.00 C 106.66 159.99 101.33 160.00 96.00 160.00 C 96.00 157.33 96.00 154.66 96.00 152.00 C 93.33 152.00 90.67 152.00 88.00 152.00 C 88.00 120.00 88.00 88.00 88.00 56.00 C 90.67 56.00 93.33 56.00 96.00 56.00 C 96.00 53.33 96.00 50.67 96.00 48.00 C 101.33 48.00 106.67 48.00 112.00 48.00 C 112.00 45.33 112.00 42.67 112.00 40.00 C 117.33 40.00 122.66 40.00 128.00 40.00 C 128.00 37.33 128.00 34.67 128.00 32.00 C 133.33 32.00 138.66 32.00 144.00 32.00 C 144.00 29.33 144.00 26.67 144.00 24.00 C 149.33 24.00 154.66 24.00 160.00 24.00 C 160.00 21.33 160.00 18.67 160.00 16.00 C 165.33 16.00 170.66 16.00 176.00 16.00 C 176.00 13.33 176.00 10.67 176.00 8.00 Z" />
<path fill="#9985b5" opacity="1.00" d=" M 168.00 112.00 C 176.00 112.00 184.00 112.00 192.00 112.00 C 192.00 114.66 192.00 117.33 192.00 120.00 C 194.66 120.00 197.33 120.00 200.00 120.00 C 200.00 128.00 200.00 136.00 200.00 144.00 C 197.33 144.00 194.66 144.00 192.00 144.00 C 192.00 146.66 192.00 149.33 192.00 152.00 C 189.33 152.00 186.66 152.00 184.00 152.00 C 184.00 154.66 184.00 157.33 184.00 160.00 C 181.33 160.00 178.66 160.00 176.00 160.00 C 176.00 162.66 176.00 165.33 176.00 168.00 C 168.00 168.00 160.00 168.00 152.00 168.00 C 152.00 165.33 152.00 162.66 152.00 160.00 C 149.33 160.00 146.66 160.00 144.00 160.00 C 144.00 157.33 144.00 154.66 144.00 152.00 C 141.33 152.00 138.66 152.00 136.00 152.00 C 136.00 146.66 136.00 141.33 136.00 136.00 C 138.66 136.00 141.33 136.00 144.00 136.00 C 144.00 133.33 144.00 130.66 144.00 128.00 C 146.66 128.00 149.33 128.00 152.00 128.00 C 152.00 133.33 152.00 138.66 152.00 144.00 C 157.33 144.00 162.66 144.00 168.00 144.00 C 168.00 141.33 168.00 138.66 168.00 136.00 C 170.66 136.00 173.33 136.00 176.00 136.00 C 176.00 130.66 176.00 125.33 176.00 120.00 C 173.33 120.00 170.66 120.00 168.00 120.00 C 168.00 117.33 168.00 114.66 168.00 112.00 Z" />
<path fill="#9985b5" opacity="1.00" d=" M 152.00 120.00 C 154.66 120.00 157.33 120.00 160.00 120.00 C 160.00 122.66 160.00 125.33 160.00 128.00 C 157.33 128.00 154.66 128.00 152.00 128.00 C 152.00 125.33 152.00 122.66 152.00 120.00 Z" />
<path fill="#9985b5" opacity="1.00" d=" M 64.00 152.00 C 72.00 152.00 80.00 152.00 88.00 152.00 C 88.00 154.66 88.00 157.33 88.00 160.00 C 90.67 160.00 93.33 160.00 96.00 160.00 C 96.00 162.66 96.00 165.33 96.00 168.00 C 98.67 168.00 101.33 168.00 104.00 168.00 C 104.00 173.33 104.00 178.66 104.00 184.00 C 101.33 184.00 98.67 184.00 96.00 184.00 C 96.00 186.66 96.00 189.33 96.00 192.00 C 93.33 192.00 90.67 192.00 88.00 192.00 C 88.00 194.66 88.00 197.33 88.00 200.00 C 82.67 200.00 77.33 200.00 72.00 200.00 C 72.00 202.66 72.00 205.33 72.00 208.00 C 61.33 208.00 50.67 208.00 40.00 208.00 C 40.00 205.33 40.00 202.66 40.00 200.00 C 37.33 200.00 34.67 200.00 32.00 200.00 C 32.00 192.00 32.00 184.00 32.00 176.00 C 34.67 175.99 37.33 175.99 40.00 176.00 C 40.00 173.33 40.00 170.66 40.00 168.00 C 42.67 168.00 45.33 168.00 48.00 168.00 C 48.00 173.33 48.00 178.66 48.00 184.00 C 53.33 184.00 58.67 184.00 64.00 184.00 C 64.00 181.33 64.00 178.66 64.00 176.00 C 66.67 176.00 69.33 176.00 72.00 176.00 C 72.00 170.66 72.00 165.33 72.00 160.00 C 69.33 160.00 66.67 160.00 64.00 160.00 C 64.00 157.33 64.00 154.66 64.00 152.00 Z" />
<path fill="#9985b5" opacity="1.00" d=" M 48.00 160.00 C 50.67 160.00 53.33 160.00 56.00 160.00 C 56.00 162.66 56.00 165.33 56.00 168.00 C 53.33 168.00 50.67 168.00 48.00 168.00 C 48.00 165.33 48.00 162.66 48.00 160.00 Z" />
</g>
<g id="#705891ff">
<path fill="#705891" opacity="1.00" d=" M 168.00 56.00 C 170.66 56.00 173.33 56.00 176.00 56.00 C 176.00 58.66 176.00 61.33 176.00 64.00 C 173.33 64.00 170.66 64.00 168.00 64.00 C 168.00 61.33 168.00 58.67 168.00 56.00 Z" />
<path fill="#705891" opacity="1.00" d=" M 176.00 64.00 C 181.33 64.00 186.66 64.00 192.00 64.00 C 191.99 66.66 191.99 69.33 192.00 72.00 C 186.66 72.00 181.33 72.00 176.00 72.00 C 175.99 69.33 175.99 66.66 176.00 64.00 Z" />
<path fill="#705891" opacity="1.00" d=" M 160.00 72.00 C 165.33 72.00 170.66 72.00 176.00 72.00 C 176.00 74.66 176.00 77.33 176.00 80.00 C 170.66 80.00 165.33 80.00 160.00 80.00 C 160.00 77.33 160.00 74.67 160.00 72.00 Z" />
<path fill="#705891" opacity="1.00" d=" M 112.00 80.00 C 114.66 80.00 117.33 80.00 120.00 80.00 C 120.00 82.67 120.00 85.33 120.00 88.00 C 117.33 88.00 114.66 88.00 112.00 88.00 C 112.00 85.33 112.00 82.67 112.00 80.00 Z" />
<path fill="#705891" opacity="1.00" d=" M 144.00 80.00 C 149.33 80.00 154.66 80.00 160.00 80.00 C 160.00 82.66 160.00 85.33 160.00 88.00 C 154.66 88.00 149.33 88.00 144.00 88.00 C 144.00 85.33 144.00 82.67 144.00 80.00 Z" />
<path fill="#705891" opacity="1.00" d=" M 128.00 88.00 C 133.33 88.00 138.66 88.00 144.00 88.00 C 144.00 90.66 144.00 93.33 144.00 96.00 C 138.66 96.00 133.33 96.00 128.00 96.00 C 128.00 93.33 128.00 90.67 128.00 88.00 Z" />
<path fill="#705891" opacity="1.00" d=" M 112.00 96.00 C 117.33 96.00 122.66 96.00 128.00 96.00 C 128.00 98.66 128.00 101.33 128.00 104.00 C 122.66 104.00 117.33 104.00 112.00 104.00 C 112.00 101.33 112.00 98.66 112.00 96.00 Z" />
<path fill="#705891" opacity="1.00" d=" M 192.00 104.00 C 194.66 104.00 197.33 104.00 200.00 104.00 C 200.00 106.66 200.00 109.33 200.00 112.00 C 202.66 112.00 205.33 112.00 208.00 112.00 C 208.00 114.66 208.00 117.33 208.00 120.00 C 210.66 120.00 213.33 120.00 216.00 120.00 C 216.00 130.67 216.00 141.33 216.00 152.00 C 213.33 152.00 210.66 152.00 208.00 152.00 C 208.00 154.66 208.00 157.33 208.00 160.00 C 205.33 160.00 202.66 160.00 200.00 160.00 C 200.00 162.66 200.00 165.33 200.00 168.00 C 197.33 168.00 194.66 168.00 192.00 168.00 C 192.00 170.66 192.00 173.33 192.00 176.00 C 186.66 176.00 181.33 176.00 176.00 176.00 C 176.00 178.66 176.00 181.33 176.00 184.00 C 165.33 184.00 154.67 184.00 144.00 184.00 C 144.00 181.33 144.00 178.66 144.00 176.00 C 141.33 176.00 138.66 176.00 136.00 176.00 C 136.00 168.00 136.00 160.00 136.00 152.00 C 138.66 152.00 141.33 152.00 144.00 152.00 C 144.00 154.66 144.00 157.33 144.00 160.00 C 146.66 160.00 149.33 160.00 152.00 160.00 C 152.00 162.66 152.00 165.33 152.00 168.00 C 160.00 168.00 168.00 168.00 176.00 168.00 C 176.00 165.33 176.00 162.66 176.00 160.00 C 178.66 160.00 181.33 160.00 184.00 160.00 C 184.00 157.33 184.00 154.66 184.00 152.00 C 186.66 152.00 189.33 152.00 192.00 152.00 C 192.00 149.33 192.00 146.66 192.00 144.00 C 194.66 144.00 197.33 144.00 200.00 144.00 C 200.00 136.00 200.00 128.00 200.00 120.00 C 197.33 120.00 194.66 120.00 192.00 120.00 C 192.00 117.33 192.00 114.66 192.00 112.00 C 191.99 109.33 191.99 106.66 192.00 104.00 Z" />
<path fill="#705891" opacity="1.00" d=" M 88.00 152.00 C 90.67 152.00 93.33 152.00 96.00 152.00 C 96.00 154.66 96.00 157.33 96.00 160.00 C 93.33 160.00 90.67 160.00 88.00 160.00 C 88.00 157.33 88.00 154.66 88.00 152.00 Z" />
<path fill="#705891" opacity="1.00" d=" M 96.00 160.00 C 101.33 160.00 106.66 159.99 112.00 160.00 C 112.00 170.67 112.00 181.33 112.00 192.00 C 109.33 191.99 106.66 191.99 104.00 192.00 C 104.00 194.66 104.00 197.33 104.00 200.00 C 101.33 200.00 98.67 200.00 96.00 200.00 C 96.00 202.66 96.00 205.33 96.00 208.00 C 93.33 208.00 90.67 208.00 88.00 208.00 C 88.00 210.66 88.00 213.33 88.00 216.00 C 82.67 216.00 77.33 216.00 72.00 216.00 C 72.00 218.66 72.00 221.33 72.00 224.00 C 61.33 224.00 50.67 224.00 40.00 224.00 C 40.00 221.33 40.00 218.66 40.00 216.00 C 37.33 216.00 34.67 216.00 32.00 216.00 C 32.00 210.66 32.00 205.33 32.00 200.00 C 34.67 200.00 37.33 200.00 40.00 200.00 C 40.00 202.66 40.00 205.33 40.00 208.00 C 50.67 208.00 61.33 208.00 72.00 208.00 C 72.00 205.33 72.00 202.66 72.00 200.00 C 77.33 200.00 82.67 200.00 88.00 200.00 C 88.00 197.33 88.00 194.66 88.00 192.00 C 90.67 192.00 93.33 192.00 96.00 192.00 C 96.00 189.33 96.00 186.66 96.00 184.00 C 98.67 184.00 101.33 184.00 104.00 184.00 C 104.00 178.66 104.00 173.33 104.00 168.00 C 101.33 168.00 98.67 168.00 96.00 168.00 C 96.00 165.33 96.00 162.66 96.00 160.00 Z" />
<path fill="#705891" opacity="1.00" d=" M 208.00 168.00 C 210.66 168.00 213.33 168.00 216.00 168.00 C 215.99 170.66 215.99 173.33 216.00 176.00 C 213.33 176.00 210.66 176.00 208.00 176.00 C 208.00 173.33 208.00 170.66 208.00 168.00 Z" />
<path fill="#705891" opacity="1.00" d=" M 200.00 176.00 C 202.66 176.00 205.33 176.00 208.00 176.00 C 207.99 178.66 207.99 181.33 208.00 184.00 C 205.33 183.99 202.66 183.99 200.00 184.00 C 200.00 181.33 200.00 178.66 200.00 176.00 Z" />
<path fill="#705891" opacity="1.00" d=" M 192.00 184.00 C 194.66 183.99 197.33 183.99 200.00 184.00 C 199.99 186.66 199.99 189.33 200.00 192.00 C 197.33 191.99 194.66 191.99 192.00 192.00 C 192.00 189.33 192.00 186.66 192.00 184.00 Z" />
<path fill="#705891" opacity="1.00" d=" M 152.00 192.00 C 165.33 192.00 178.66 192.00 192.00 192.00 C 191.99 194.66 191.99 197.33 192.00 200.00 C 178.66 200.00 165.33 200.00 152.00 200.00 C 152.00 197.33 152.00 194.66 152.00 192.00 Z" />
<path fill="#705891" opacity="1.00" d=" M 104.00 208.00 C 106.66 207.99 109.33 207.99 112.00 208.00 C 112.00 210.66 112.00 213.33 112.00 216.00 C 109.33 215.99 106.66 215.99 104.00 216.00 C 104.00 213.33 104.00 210.66 104.00 208.00 Z" />
<path fill="#705891" opacity="1.00" d=" M 96.00 216.00 C 98.66 215.99 101.33 215.99 104.00 216.00 C 104.00 218.66 104.00 221.33 104.00 224.00 C 101.33 223.99 98.66 223.99 96.00 224.00 C 96.00 221.33 96.00 218.66 96.00 216.00 Z" />
<path fill="#705891" opacity="1.00" d=" M 88.00 224.00 C 90.66 223.99 93.33 223.99 96.00 224.00 C 96.00 226.66 96.00 229.33 96.00 232.00 C 93.33 231.99 90.66 231.99 88.00 232.00 C 88.00 229.33 88.00 226.66 88.00 224.00 Z" />
<path fill="#705891" opacity="1.00" d=" M 48.00 232.00 C 61.33 232.00 74.67 232.00 88.00 232.00 C 88.00 234.66 88.00 237.33 88.00 240.00 C 74.67 240.00 61.33 240.00 48.00 240.00 C 48.00 237.33 48.00 234.66 48.00 232.00 Z" />
</g>
<g id="#47385cff">
<path fill="#47385c" opacity="1.00" d=" M 176.00 56.00 C 181.33 56.00 186.66 56.00 192.00 56.00 C 191.99 58.66 191.99 61.33 192.00 64.00 C 186.66 64.00 181.33 64.00 176.00 64.00 C 176.00 61.33 176.00 58.66 176.00 56.00 Z" />
<path fill="#47385c" opacity="1.00" d=" M 152.00 64.00 C 157.33 64.00 162.66 64.00 168.00 64.00 C 170.66 64.00 173.33 64.00 176.00 64.00 C 175.99 66.66 175.99 69.33 176.00 72.00 C 170.66 72.00 165.33 72.00 160.00 72.00 C 160.00 74.67 160.00 77.33 160.00 80.00 C 154.66 80.00 149.33 80.00 144.00 80.00 C 144.00 82.67 144.00 85.33 144.00 88.00 C 138.66 88.00 133.33 88.00 128.00 88.00 C 128.00 90.67 128.00 93.33 128.00 96.00 C 122.66 96.00 117.33 96.00 112.00 96.00 C 112.00 93.33 112.00 90.66 112.00 88.00 C 114.66 88.00 117.33 88.00 120.00 88.00 C 120.00 85.33 120.00 82.67 120.00 80.00 C 125.33 80.00 130.66 80.00 136.00 80.00 C 136.00 77.33 136.00 74.67 136.00 72.00 C 141.33 72.00 146.66 72.00 152.00 72.00 C 152.00 69.33 152.00 66.67 152.00 64.00 Z" />
<path fill="#47385c" opacity="1.00" d=" M 208.00 152.00 C 210.66 152.00 213.33 152.00 216.00 152.00 C 216.00 157.33 215.99 162.66 216.00 168.00 C 213.33 168.00 210.66 168.00 208.00 168.00 C 208.00 170.66 208.00 173.33 208.00 176.00 C 205.33 176.00 202.66 176.00 200.00 176.00 C 200.00 178.66 200.00 181.33 200.00 184.00 C 197.33 183.99 194.66 183.99 192.00 184.00 C 192.00 186.66 192.00 189.33 192.00 192.00 C 178.66 192.00 165.33 192.00 152.00 192.00 C 149.33 191.99 146.66 191.99 144.00 192.00 C 144.00 189.33 144.00 186.66 144.00 184.00 C 154.67 184.00 165.33 184.00 176.00 184.00 C 176.00 181.33 176.00 178.66 176.00 176.00 C 181.33 176.00 186.66 176.00 192.00 176.00 C 192.00 173.33 192.00 170.66 192.00 168.00 C 194.66 168.00 197.33 168.00 200.00 168.00 C 200.00 165.33 200.00 162.66 200.00 160.00 C 202.66 160.00 205.33 160.00 208.00 160.00 C 208.00 157.33 208.00 154.66 208.00 152.00 Z" />
<path fill="#47385c" opacity="1.00" d=" M 136.00 176.00 C 138.66 176.00 141.33 176.00 144.00 176.00 C 144.00 178.66 144.00 181.33 144.00 184.00 C 141.33 183.99 138.66 183.99 136.00 184.00 C 136.00 181.33 136.00 178.66 136.00 176.00 Z" />
<path fill="#47385c" opacity="1.00" d=" M 104.00 192.00 C 106.66 191.99 109.33 191.99 112.00 192.00 C 112.00 197.33 112.00 202.66 112.00 208.00 C 109.33 207.99 106.66 207.99 104.00 208.00 C 104.00 210.66 104.00 213.33 104.00 216.00 C 101.33 215.99 98.66 215.99 96.00 216.00 C 96.00 218.66 96.00 221.33 96.00 224.00 C 93.33 223.99 90.66 223.99 88.00 224.00 C 88.00 226.66 88.00 229.33 88.00 232.00 C 74.67 232.00 61.33 232.00 48.00 232.00 C 45.33 231.99 42.67 231.99 40.00 232.00 C 40.00 229.33 40.00 226.66 40.00 224.00 C 50.67 224.00 61.33 224.00 72.00 224.00 C 72.00 221.33 72.00 218.66 72.00 216.00 C 77.33 216.00 82.67 216.00 88.00 216.00 C 88.00 213.33 88.00 210.66 88.00 208.00 C 90.67 208.00 93.33 208.00 96.00 208.00 C 96.00 205.33 96.00 202.66 96.00 200.00 C 98.67 200.00 101.33 200.00 104.00 200.00 C 104.00 197.33 104.00 194.66 104.00 192.00 Z" />
<path fill="#47385c" opacity="1.00" d=" M 32.00 216.00 C 34.67 216.00 37.33 216.00 40.00 216.00 C 40.00 218.66 40.00 221.33 40.00 224.00 C 37.33 223.99 34.67 223.99 32.00 224.00 C 32.00 221.33 32.00 218.66 32.00 216.00 Z" />
</g>
<g id="#ffffffff">
<path fill="#ffffff" opacity="1.00" d=" M 160.00 120.00 C 162.66 120.00 165.33 120.00 168.00 120.00 C 170.66 120.00 173.33 120.00 176.00 120.00 C 176.00 125.33 176.00 130.66 176.00 136.00 C 173.33 136.00 170.66 136.00 168.00 136.00 C 168.00 138.66 168.00 141.33 168.00 144.00 C 162.66 144.00 157.33 144.00 152.00 144.00 C 152.00 138.66 152.00 133.33 152.00 128.00 C 154.66 128.00 157.33 128.00 160.00 128.00 C 160.00 125.33 160.00 122.66 160.00 120.00 Z" />
<path fill="#ffffff" opacity="1.00" d=" M 56.00 160.00 C 58.66 160.00 61.33 160.00 64.00 160.00 C 66.67 160.00 69.33 160.00 72.00 160.00 C 72.00 165.33 72.00 170.66 72.00 176.00 C 69.33 176.00 66.67 176.00 64.00 176.00 C 64.00 178.66 64.00 181.33 64.00 184.00 C 58.67 184.00 53.33 184.00 48.00 184.00 C 48.00 178.66 48.00 173.33 48.00 168.00 C 50.67 168.00 53.33 168.00 56.00 168.00 C 56.00 165.33 56.00 162.66 56.00 160.00 Z" />
</g>
</svg>
